<mxfile host="Electron" modified="2023-09-23T05:35:36.988Z" agent="Mozilla/5.0 (Macintosh; Intel Mac OS X 10_15_7) AppleWebKit/537.36 (KHTML, like Gecko) draw.io/21.7.5 Chrome/114.0.5735.289 Electron/25.8.1 Safari/537.36" etag="xUAX9x9jIlIvEwr4nhxn" version="21.7.5" type="device">
  <diagram name="ページ1" id="1SYdnGkMNw1hmZjvQS8n">
    <mxGraphModel dx="910" dy="1844" grid="1" gridSize="10" guides="1" tooltips="1" connect="1" arrows="1" fold="1" page="1" pageScale="1" pageWidth="827" pageHeight="1169" math="0" shadow="0">
      <root>
        <mxCell id="0" />
        <mxCell id="1" parent="0" />
        <mxCell id="K9G8Pt_OdAeBdB-e2A77-38" value="" style="rounded=0;whiteSpace=wrap;html=1;" vertex="1" parent="1">
          <mxGeometry x="30" y="390" width="850" height="390" as="geometry" />
        </mxCell>
        <mxCell id="K9G8Pt_OdAeBdB-e2A77-36" value="" style="rounded=0;whiteSpace=wrap;html=1;" vertex="1" parent="1">
          <mxGeometry x="30" y="-40" width="850" height="390" as="geometry" />
        </mxCell>
        <mxCell id="WlnbDW0-xhFgDTo-Mnop-29" value="" style="rounded=0;whiteSpace=wrap;html=1;dashed=1;" parent="1" vertex="1">
          <mxGeometry x="135" y="280" width="110" height="60" as="geometry" />
        </mxCell>
        <mxCell id="WlnbDW0-xhFgDTo-Mnop-1" value="" style="rounded=1;whiteSpace=wrap;html=1;arcSize=6;fillColor=#ffe6cc;strokeColor=#d79b00;" parent="1" vertex="1">
          <mxGeometry x="50" y="20" width="230" height="240" as="geometry" />
        </mxCell>
        <mxCell id="WlnbDW0-xhFgDTo-Mnop-11" value="" style="rounded=1;whiteSpace=wrap;html=1;arcSize=6;" parent="1" vertex="1">
          <mxGeometry x="70" y="50" width="190" height="200" as="geometry" />
        </mxCell>
        <mxCell id="WlnbDW0-xhFgDTo-Mnop-5" value="" style="rounded=1;whiteSpace=wrap;html=1;arcSize=6;fillColor=#dae8fc;strokeColor=#6c8ebf;" parent="1" vertex="1">
          <mxGeometry x="370" y="20" width="200" height="240" as="geometry" />
        </mxCell>
        <mxCell id="WlnbDW0-xhFgDTo-Mnop-8" style="edgeStyle=orthogonalEdgeStyle;rounded=0;orthogonalLoop=1;jettySize=auto;html=1;exitX=1;exitY=0.25;exitDx=0;exitDy=0;endArrow=open;endFill=0;dashed=1;" parent="1" edge="1" source="WlnbDW0-xhFgDTo-Mnop-11">
          <mxGeometry relative="1" as="geometry">
            <mxPoint x="261" y="99.98" as="sourcePoint" />
            <Array as="points" />
            <mxPoint x="411" y="99.98182815356489" as="targetPoint" />
          </mxGeometry>
        </mxCell>
        <mxCell id="WlnbDW0-xhFgDTo-Mnop-2" value="View" style="text;html=1;strokeColor=none;fillColor=none;align=center;verticalAlign=middle;whiteSpace=wrap;rounded=0;fontStyle=1" parent="1" vertex="1">
          <mxGeometry x="135" y="20" width="60" height="30" as="geometry" />
        </mxCell>
        <mxCell id="WlnbDW0-xhFgDTo-Mnop-10" style="edgeStyle=orthogonalEdgeStyle;rounded=0;orthogonalLoop=1;jettySize=auto;html=1;entryX=0.5;entryY=0;entryDx=0;entryDy=0;dashed=1;endArrow=open;endFill=0;" parent="1" source="WlnbDW0-xhFgDTo-Mnop-3" target="WlnbDW0-xhFgDTo-Mnop-4" edge="1">
          <mxGeometry relative="1" as="geometry" />
        </mxCell>
        <mxCell id="WlnbDW0-xhFgDTo-Mnop-3" value="ViewBinding" style="rounded=1;whiteSpace=wrap;html=1;" parent="1" vertex="1">
          <mxGeometry x="105" y="90" width="120" height="60" as="geometry" />
        </mxCell>
        <mxCell id="WlnbDW0-xhFgDTo-Mnop-4" value="XML レイアウト" style="rounded=1;whiteSpace=wrap;html=1;" parent="1" vertex="1">
          <mxGeometry x="105" y="180" width="120" height="60" as="geometry" />
        </mxCell>
        <mxCell id="WlnbDW0-xhFgDTo-Mnop-6" value="LiveData" style="rounded=1;whiteSpace=wrap;html=1;" parent="1" vertex="1">
          <mxGeometry x="410" y="70" width="120" height="60" as="geometry" />
        </mxCell>
        <mxCell id="WlnbDW0-xhFgDTo-Mnop-7" value="ViewModel" style="text;html=1;strokeColor=none;fillColor=none;align=center;verticalAlign=middle;whiteSpace=wrap;rounded=0;fontStyle=1" parent="1" vertex="1">
          <mxGeometry x="440" y="20" width="60" height="30" as="geometry" />
        </mxCell>
        <mxCell id="WlnbDW0-xhFgDTo-Mnop-12" value="Fragment" style="text;html=1;strokeColor=none;fillColor=none;align=center;verticalAlign=middle;whiteSpace=wrap;rounded=0;" parent="1" vertex="1">
          <mxGeometry x="135" y="50" width="60" height="30" as="geometry" />
        </mxCell>
        <mxCell id="WlnbDW0-xhFgDTo-Mnop-13" value="" style="rounded=1;whiteSpace=wrap;html=1;arcSize=6;fillColor=#e1d5e7;strokeColor=#9673a6;" parent="1" vertex="1">
          <mxGeometry x="650" y="20" width="200" height="300" as="geometry" />
        </mxCell>
        <mxCell id="WlnbDW0-xhFgDTo-Mnop-14" value="Model" style="text;html=1;strokeColor=none;fillColor=none;align=center;verticalAlign=middle;whiteSpace=wrap;rounded=0;fontStyle=1" parent="1" vertex="1">
          <mxGeometry x="720" y="20" width="60" height="30" as="geometry" />
        </mxCell>
        <mxCell id="WlnbDW0-xhFgDTo-Mnop-18" style="edgeStyle=orthogonalEdgeStyle;rounded=0;orthogonalLoop=1;jettySize=auto;html=1;exitX=0.5;exitY=1;exitDx=0;exitDy=0;entryX=0.5;entryY=0;entryDx=0;entryDy=0;dashed=1;endArrow=open;endFill=0;" parent="1" source="WlnbDW0-xhFgDTo-Mnop-15" target="WlnbDW0-xhFgDTo-Mnop-16" edge="1">
          <mxGeometry relative="1" as="geometry">
            <mxPoint x="970" y="280" as="targetPoint" />
          </mxGeometry>
        </mxCell>
        <mxCell id="WlnbDW0-xhFgDTo-Mnop-15" value="Use Case" style="rounded=1;whiteSpace=wrap;html=1;" parent="1" vertex="1">
          <mxGeometry x="690" y="50" width="120" height="60" as="geometry" />
        </mxCell>
        <mxCell id="WlnbDW0-xhFgDTo-Mnop-20" style="edgeStyle=orthogonalEdgeStyle;rounded=0;orthogonalLoop=1;jettySize=auto;html=1;entryX=0.5;entryY=0;entryDx=0;entryDy=0;dashed=1;endArrow=open;endFill=0;" parent="1" source="WlnbDW0-xhFgDTo-Mnop-16" target="WlnbDW0-xhFgDTo-Mnop-17" edge="1">
          <mxGeometry relative="1" as="geometry" />
        </mxCell>
        <mxCell id="WlnbDW0-xhFgDTo-Mnop-16" value="Repository" style="rounded=1;whiteSpace=wrap;html=1;" parent="1" vertex="1">
          <mxGeometry x="690" y="140" width="120" height="60" as="geometry" />
        </mxCell>
        <mxCell id="WlnbDW0-xhFgDTo-Mnop-17" value="Data Source" style="rounded=1;whiteSpace=wrap;html=1;" parent="1" vertex="1">
          <mxGeometry x="690" y="230" width="120" height="60" as="geometry" />
        </mxCell>
        <mxCell id="WlnbDW0-xhFgDTo-Mnop-21" style="edgeStyle=orthogonalEdgeStyle;rounded=0;orthogonalLoop=1;jettySize=auto;html=1;entryX=0;entryY=0.5;entryDx=0;entryDy=0;exitX=1;exitY=0.25;exitDx=0;exitDy=0;dashed=1;endArrow=open;endFill=0;" parent="1" source="WlnbDW0-xhFgDTo-Mnop-5" target="WlnbDW0-xhFgDTo-Mnop-15" edge="1">
          <mxGeometry relative="1" as="geometry" />
        </mxCell>
        <mxCell id="WlnbDW0-xhFgDTo-Mnop-22" style="edgeStyle=orthogonalEdgeStyle;rounded=0;orthogonalLoop=1;jettySize=auto;html=1;entryX=1;entryY=0.5;entryDx=0;entryDy=0;dashed=1;endArrow=open;endFill=0;" parent="1" target="WlnbDW0-xhFgDTo-Mnop-6" edge="1">
          <mxGeometry relative="1" as="geometry">
            <mxPoint x="570" y="100" as="sourcePoint" />
            <Array as="points">
              <mxPoint x="570" y="100" />
            </Array>
          </mxGeometry>
        </mxCell>
        <mxCell id="WlnbDW0-xhFgDTo-Mnop-23" style="edgeStyle=orthogonalEdgeStyle;rounded=0;orthogonalLoop=1;jettySize=auto;html=1;entryX=0;entryY=0.25;entryDx=0;entryDy=0;endArrow=open;endFill=0;dashed=1;" parent="1" target="WlnbDW0-xhFgDTo-Mnop-5" edge="1">
          <mxGeometry relative="1" as="geometry">
            <mxPoint x="260" y="80" as="sourcePoint" />
            <mxPoint x="370" y="80" as="targetPoint" />
            <Array as="points">
              <mxPoint x="316" y="80" />
              <mxPoint x="316" y="80" />
            </Array>
          </mxGeometry>
        </mxCell>
        <mxCell id="WlnbDW0-xhFgDTo-Mnop-27" value="" style="endArrow=open;html=1;rounded=0;dashed=1;endFill=0;" parent="1" edge="1">
          <mxGeometry width="50" height="50" relative="1" as="geometry">
            <mxPoint x="165" y="300" as="sourcePoint" />
            <mxPoint x="215" y="300" as="targetPoint" />
          </mxGeometry>
        </mxCell>
        <mxCell id="WlnbDW0-xhFgDTo-Mnop-28" value="参照" style="text;html=1;strokeColor=none;fillColor=none;align=center;verticalAlign=middle;whiteSpace=wrap;rounded=0;" parent="1" vertex="1">
          <mxGeometry x="160" y="306" width="60" height="30" as="geometry" />
        </mxCell>
        <mxCell id="K9G8Pt_OdAeBdB-e2A77-1" value="" style="endArrow=open;html=1;rounded=0;entryX=1;entryY=0.5;entryDx=0;entryDy=0;exitX=0.999;exitY=0.349;exitDx=0;exitDy=0;exitPerimeter=0;dashed=1;endFill=0;" edge="1" parent="1" source="WlnbDW0-xhFgDTo-Mnop-11" target="WlnbDW0-xhFgDTo-Mnop-3">
          <mxGeometry width="50" height="50" relative="1" as="geometry">
            <mxPoint x="190" y="170" as="sourcePoint" />
            <mxPoint x="240" y="120" as="targetPoint" />
          </mxGeometry>
        </mxCell>
        <mxCell id="K9G8Pt_OdAeBdB-e2A77-2" value="" style="rounded=0;whiteSpace=wrap;html=1;dashed=1;" vertex="1" parent="1">
          <mxGeometry x="135" y="709" width="110" height="60" as="geometry" />
        </mxCell>
        <mxCell id="K9G8Pt_OdAeBdB-e2A77-3" value="" style="rounded=1;whiteSpace=wrap;html=1;arcSize=6;fillColor=#ffe6cc;strokeColor=#d79b00;" vertex="1" parent="1">
          <mxGeometry x="50" y="449" width="230" height="240" as="geometry" />
        </mxCell>
        <mxCell id="K9G8Pt_OdAeBdB-e2A77-4" value="" style="rounded=1;whiteSpace=wrap;html=1;arcSize=6;" vertex="1" parent="1">
          <mxGeometry x="70" y="479" width="190" height="200" as="geometry" />
        </mxCell>
        <mxCell id="K9G8Pt_OdAeBdB-e2A77-5" value="" style="rounded=1;whiteSpace=wrap;html=1;arcSize=6;fillColor=#dae8fc;strokeColor=#6c8ebf;" vertex="1" parent="1">
          <mxGeometry x="370" y="449" width="200" height="240" as="geometry" />
        </mxCell>
        <mxCell id="K9G8Pt_OdAeBdB-e2A77-7" value="View" style="text;html=1;strokeColor=none;fillColor=none;align=center;verticalAlign=middle;whiteSpace=wrap;rounded=0;fontStyle=1" vertex="1" parent="1">
          <mxGeometry x="135" y="449" width="60" height="30" as="geometry" />
        </mxCell>
        <mxCell id="K9G8Pt_OdAeBdB-e2A77-9" value="ViewBinding" style="rounded=1;whiteSpace=wrap;html=1;" vertex="1" parent="1">
          <mxGeometry x="105" y="519" width="120" height="60" as="geometry" />
        </mxCell>
        <mxCell id="K9G8Pt_OdAeBdB-e2A77-10" value="XML レイアウト" style="rounded=1;whiteSpace=wrap;html=1;" vertex="1" parent="1">
          <mxGeometry x="105" y="609" width="120" height="60" as="geometry" />
        </mxCell>
        <mxCell id="K9G8Pt_OdAeBdB-e2A77-11" value="LiveData" style="rounded=1;whiteSpace=wrap;html=1;" vertex="1" parent="1">
          <mxGeometry x="410" y="499" width="120" height="60" as="geometry" />
        </mxCell>
        <mxCell id="K9G8Pt_OdAeBdB-e2A77-12" value="ViewModel" style="text;html=1;strokeColor=none;fillColor=none;align=center;verticalAlign=middle;whiteSpace=wrap;rounded=0;fontStyle=1" vertex="1" parent="1">
          <mxGeometry x="440" y="449" width="60" height="30" as="geometry" />
        </mxCell>
        <mxCell id="K9G8Pt_OdAeBdB-e2A77-13" value="Fragment" style="text;html=1;strokeColor=none;fillColor=none;align=center;verticalAlign=middle;whiteSpace=wrap;rounded=0;" vertex="1" parent="1">
          <mxGeometry x="135" y="479" width="60" height="30" as="geometry" />
        </mxCell>
        <mxCell id="K9G8Pt_OdAeBdB-e2A77-14" value="" style="rounded=1;whiteSpace=wrap;html=1;arcSize=6;fillColor=#e1d5e7;strokeColor=#9673a6;" vertex="1" parent="1">
          <mxGeometry x="650" y="449" width="200" height="300" as="geometry" />
        </mxCell>
        <mxCell id="K9G8Pt_OdAeBdB-e2A77-15" value="Model" style="text;html=1;strokeColor=none;fillColor=none;align=center;verticalAlign=middle;whiteSpace=wrap;rounded=0;fontStyle=1" vertex="1" parent="1">
          <mxGeometry x="720" y="449" width="60" height="30" as="geometry" />
        </mxCell>
        <mxCell id="K9G8Pt_OdAeBdB-e2A77-17" value="Use Case" style="rounded=1;whiteSpace=wrap;html=1;" vertex="1" parent="1">
          <mxGeometry x="690" y="479" width="120" height="60" as="geometry" />
        </mxCell>
        <mxCell id="K9G8Pt_OdAeBdB-e2A77-19" value="Repository" style="rounded=1;whiteSpace=wrap;html=1;" vertex="1" parent="1">
          <mxGeometry x="690" y="569" width="120" height="60" as="geometry" />
        </mxCell>
        <mxCell id="K9G8Pt_OdAeBdB-e2A77-20" value="Data Source" style="rounded=1;whiteSpace=wrap;html=1;" vertex="1" parent="1">
          <mxGeometry x="690" y="659" width="120" height="60" as="geometry" />
        </mxCell>
        <mxCell id="K9G8Pt_OdAeBdB-e2A77-25" value="データの流れ" style="text;html=1;strokeColor=none;fillColor=none;align=center;verticalAlign=middle;whiteSpace=wrap;rounded=0;" vertex="1" parent="1">
          <mxGeometry x="160" y="735" width="60" height="30" as="geometry" />
        </mxCell>
        <mxCell id="K9G8Pt_OdAeBdB-e2A77-27" value="" style="endArrow=classic;html=1;rounded=0;entryX=0.5;entryY=1;entryDx=0;entryDy=0;" edge="1" parent="1" source="K9G8Pt_OdAeBdB-e2A77-20" target="K9G8Pt_OdAeBdB-e2A77-19">
          <mxGeometry width="50" height="50" relative="1" as="geometry">
            <mxPoint x="490" y="808" as="sourcePoint" />
            <mxPoint x="540" y="758" as="targetPoint" />
          </mxGeometry>
        </mxCell>
        <mxCell id="K9G8Pt_OdAeBdB-e2A77-28" value="" style="endArrow=classic;html=1;rounded=0;entryX=0.5;entryY=1;entryDx=0;entryDy=0;" edge="1" parent="1" source="K9G8Pt_OdAeBdB-e2A77-19" target="K9G8Pt_OdAeBdB-e2A77-17">
          <mxGeometry width="50" height="50" relative="1" as="geometry">
            <mxPoint x="510" y="788" as="sourcePoint" />
            <mxPoint x="560" y="738" as="targetPoint" />
          </mxGeometry>
        </mxCell>
        <mxCell id="K9G8Pt_OdAeBdB-e2A77-29" value="" style="endArrow=classic;html=1;rounded=0;entryX=0.995;entryY=0.188;entryDx=0;entryDy=0;entryPerimeter=0;exitX=0.001;exitY=0.149;exitDx=0;exitDy=0;exitPerimeter=0;" edge="1" parent="1" source="K9G8Pt_OdAeBdB-e2A77-14">
          <mxGeometry width="50" height="50" relative="1" as="geometry">
            <mxPoint x="652" y="493.70000000000005" as="sourcePoint" />
            <mxPoint x="570" y="494.12" as="targetPoint" />
          </mxGeometry>
        </mxCell>
        <mxCell id="K9G8Pt_OdAeBdB-e2A77-30" value="" style="endArrow=classic;html=1;rounded=0;entryX=1;entryY=0.5;entryDx=0;entryDy=0;exitX=1.002;exitY=0.333;exitDx=0;exitDy=0;exitPerimeter=0;" edge="1" parent="1" source="K9G8Pt_OdAeBdB-e2A77-5" target="K9G8Pt_OdAeBdB-e2A77-11">
          <mxGeometry width="50" height="50" relative="1" as="geometry">
            <mxPoint x="460" y="628" as="sourcePoint" />
            <mxPoint x="510" y="578" as="targetPoint" />
          </mxGeometry>
        </mxCell>
        <mxCell id="K9G8Pt_OdAeBdB-e2A77-31" value="" style="endArrow=classic;html=1;rounded=0;entryX=1;entryY=0.25;entryDx=0;entryDy=0;exitX=0;exitY=0.5;exitDx=0;exitDy=0;" edge="1" parent="1" source="K9G8Pt_OdAeBdB-e2A77-11" target="K9G8Pt_OdAeBdB-e2A77-4">
          <mxGeometry width="50" height="50" relative="1" as="geometry">
            <mxPoint x="300" y="628" as="sourcePoint" />
            <mxPoint x="350" y="578" as="targetPoint" />
          </mxGeometry>
        </mxCell>
        <mxCell id="K9G8Pt_OdAeBdB-e2A77-32" value="" style="endArrow=classic;html=1;rounded=0;entryX=1;entryY=0.5;entryDx=0;entryDy=0;exitX=0.997;exitY=0.35;exitDx=0;exitDy=0;exitPerimeter=0;" edge="1" parent="1" source="K9G8Pt_OdAeBdB-e2A77-4" target="K9G8Pt_OdAeBdB-e2A77-9">
          <mxGeometry width="50" height="50" relative="1" as="geometry">
            <mxPoint x="300" y="758" as="sourcePoint" />
            <mxPoint x="350" y="708" as="targetPoint" />
          </mxGeometry>
        </mxCell>
        <mxCell id="K9G8Pt_OdAeBdB-e2A77-34" value="" style="endArrow=classic;html=1;rounded=0;exitX=0.5;exitY=1;exitDx=0;exitDy=0;entryX=0.5;entryY=0;entryDx=0;entryDy=0;" edge="1" parent="1" source="K9G8Pt_OdAeBdB-e2A77-9" target="K9G8Pt_OdAeBdB-e2A77-10">
          <mxGeometry width="50" height="50" relative="1" as="geometry">
            <mxPoint x="160" y="618" as="sourcePoint" />
            <mxPoint x="210" y="568" as="targetPoint" />
          </mxGeometry>
        </mxCell>
        <mxCell id="K9G8Pt_OdAeBdB-e2A77-35" value="" style="endArrow=classic;html=1;rounded=0;" edge="1" parent="1">
          <mxGeometry width="50" height="50" relative="1" as="geometry">
            <mxPoint x="160" y="728" as="sourcePoint" />
            <mxPoint x="220" y="728" as="targetPoint" />
          </mxGeometry>
        </mxCell>
        <mxCell id="K9G8Pt_OdAeBdB-e2A77-37" value="参照関係" style="text;html=1;strokeColor=none;fillColor=none;align=center;verticalAlign=middle;whiteSpace=wrap;rounded=0;fontSize=18;fontStyle=1" vertex="1" parent="1">
          <mxGeometry x="385" y="-30" width="170" height="30" as="geometry" />
        </mxCell>
        <mxCell id="K9G8Pt_OdAeBdB-e2A77-39" value="データの流れ" style="text;html=1;strokeColor=none;fillColor=none;align=center;verticalAlign=middle;whiteSpace=wrap;rounded=0;fontSize=18;fontStyle=1" vertex="1" parent="1">
          <mxGeometry x="380" y="400" width="170" height="30" as="geometry" />
        </mxCell>
      </root>
    </mxGraphModel>
  </diagram>
</mxfile>
